<svg width="106" height="63" viewBox="0 0 106 63" fill="none" xmlns="http://www.w3.org/2000/svg">
<path d="M51.9519 29.3184C50.687 28.8319 49.2736 29.4157 48.7819 30.6806C48.7819 30.7318 48.7307 30.7779 48.7307 30.7779C48.6795 30.9264 43.6147 43.7446 22.997 43.1557L20.9998 36.8669L18.854 30.0917C33.2342 24.1563 36.7985 12.7874 37.5103 5.72533C37.5923 4.89059 37.2287 4.08145 36.5424 3.59494C35.0931 2.57071 33.0908 3.49764 32.9167 5.26443C32.7528 6.87246 32.4404 8.46002 31.9641 10.0117C29.8184 17.1762 24.8458 22.3895 17.246 25.5134L15.1975 26.2918L0.72522 30.7318L5.11403 45.4039L9.25703 44.9174C7.99211 47.5957 7.01397 51.8411 8.62201 57.541C10.0866 62.6109 14.5216 63.1947 17.0053 61.9759C20.3187 60.3678 22.0752 56.9059 19.0025 52.1279C15.6892 47.0119 16.7134 44.7688 17.6403 43.8419L18.178 43.7907L19.443 47.8364L21.1022 47.9337C22.2698 47.9849 23.3914 48.031 24.4668 48.031C47.2302 48.031 53.0786 33.1183 53.3193 32.4832C53.8058 31.2183 53.222 29.8049 51.957 29.3133L51.9519 29.3184Z" fill="#0D0C22"/>
<path d="M104.495 39.5042C102.206 35.5558 96.209 35.3612 93.2336 40.8204C91.6256 43.7957 89.9202 45.5011 88.3583 46.5253L85.726 42.0904L90.796 39.2635L75.2226 1.52592C74.6285 0.0920035 72.872 -0.445715 71.5815 0.409514C70.5982 1.0599 70.2141 2.3197 70.6648 3.4105L80.7073 27.7103C80.2669 28.6372 78.8535 30.6856 74.9051 31.5102C73.589 31.756 72.7132 33.0721 73.0051 34.3882C73.251 35.5098 74.224 36.3394 75.3916 36.3394C75.5401 36.3394 75.7347 36.3394 75.8781 36.2882C78.4591 35.8478 80.8968 34.6801 82.848 32.8775L84.6045 37.169L83.1911 37.9474L76.7589 41.5527L72.7132 43.8418L49.2175 12.4544C48.3879 11.3841 46.8771 11.1383 45.8068 11.9679C44.7365 12.7975 44.4907 14.3083 45.3203 15.3786L68.4217 46.2334L80.948 63L93.8635 55.8355L92.0097 52.7168C95.1284 52.2303 98.0526 51.0575 100.685 49.3522C105.606 45.8903 105.657 41.6039 104.485 39.5042H104.495Z" fill="#0D0C22"/>
<path d="M40.5934 34.9721C40.7419 34.9721 40.8853 34.9721 41.0338 34.9209C44.7876 34.2398 47.5172 30.8752 47.4199 27.0241C47.4199 25.708 46.3495 24.6377 45.0334 24.6377H44.9361C43.62 24.6377 42.5497 25.7592 42.5497 27.1214C42.6009 28.5861 41.6227 29.851 40.1632 30.1429C38.8471 30.3887 37.9714 31.6536 38.2121 32.9697C38.4067 34.1374 39.4309 34.967 40.5985 34.967L40.5934 34.9721Z" fill="#0D0C22"/>
</svg>
